<svg width="32" height="32" viewBox="0 0 32 32" fill="none" xmlns="http://www.w3.org/2000/svg">
<path d="M14.5 5.33335C14.5 4.93169 14.2597 4.56901 13.8897 4.41245C13.5199 4.25589 13.0922 4.33583 12.8039 4.61545L7.30385 9.94879C7.10963 10.1371 7 10.3961 7 10.6667C7 10.9372 7.10963 11.1962 7.30385 11.3846L12.8039 16.7179C13.0922 16.9976 13.5199 17.0775 13.8897 16.9209C14.2597 16.7644 14.5 16.4017 14.5 16V11.6667H24C24.5523 11.6667 25 11.219 25 10.6667C25 10.1144 24.5523 9.66669 24 9.66669H14.5V5.33335Z" fill="white"/>
<path opacity="0.5" d="M17.5 16C17.5 15.5984 17.7403 15.2357 18.1103 15.0791C18.4801 14.9225 18.9077 15.0025 19.1961 15.2821L24.6961 20.6155C24.8904 20.8039 25 21.0628 25 21.3333C25 21.6039 24.8904 21.8629 24.6961 22.0512L19.1961 27.3845C18.9077 27.6643 18.4801 27.7441 18.1103 27.5876C17.7403 27.4311 17.5 27.0684 17.5 26.6667V22.3333H8C7.44772 22.3333 7 21.8856 7 21.3333C7 20.7811 7.44772 20.3333 8 20.3333H17.5V16Z" fill="white"/>
</svg>
